<svg id="Layer_2" data-name="Layer 2" xmlns="http://www.w3.org/2000/svg" width="30" height="30" viewBox="0 0 30 30">
  <g id="invisible_box" data-name="invisible box">
    <rect id="Rectangle_5" data-name="Rectangle 5" width="30" height="30" fill="none"/>
  </g>
  <g id="icons_Q2" data-name="icons Q2" transform="translate(1.235 1.236)">
    <g id="Group_3" data-name="Group 3">
      <path id="Path_4" data-name="Path 4" d="M23.324,16.571V13.236a1.236,1.236,0,1,0-2.471,0v3.336A3.151,3.151,0,0,0,19,19.413a3.089,3.089,0,0,0,6.178,0A3.151,3.151,0,0,0,23.324,16.571Z" transform="translate(-8.498 -5.822)" fill="#7d7d7d"/>
      <path id="Path_5" data-name="Path 5" d="M15.591,2A13.653,13.653,0,0,0,2,15.591,13.344,13.344,0,0,0,5.892,25.1a1.174,1.174,0,0,0,1.73,0h0l1.853-1.853a1.236,1.236,0,0,0-1.73-1.73l-.927.927a11.861,11.861,0,0,1-2.286-5.622H5.706a1.236,1.236,0,0,0,0-2.471H4.533A11.429,11.429,0,0,1,6.88,8.672h0l.865.8a1.224,1.224,0,1,0,1.73-1.73l-.8-.865h0a11.429,11.429,0,0,1,5.683-2.348h0V5.707a1.236,1.236,0,0,0,2.471,0V4.533h0A11.429,11.429,0,0,1,22.51,6.88h0l-.8.865a1.224,1.224,0,1,0,1.73,1.73l.865-.8h0a11.429,11.429,0,0,1,2.348,5.683H25.475a1.236,1.236,0,0,0,0,2.471h1.174a11.861,11.861,0,0,1-2.286,5.622l-.927-.927a1.236,1.236,0,1,0-1.73,1.73l1.915,1.915A1.236,1.236,0,0,0,25.29,25.1a13.344,13.344,0,0,0,3.892-9.514A13.653,13.653,0,0,0,15.591,2Z" transform="translate(-1.999 -2)" fill="#7d7d7d"/>
    </g>
  </g>
</svg>
