<svg id="Layer_2" data-name="Layer 2" xmlns="http://www.w3.org/2000/svg" width="22" height="22" viewBox="0 0 22 22">
  <g id="invisible_box" data-name="invisible box">
    <rect id="Rectangle_6" data-name="Rectangle 6" width="22" height="22" fill="none"/>
  </g>
  <g id="icons_Q2" data-name="icons Q2" transform="translate(1.833 1.833)">
    <path id="Path_6" data-name="Path 6" d="M21.417,15.917H17.429l.642-5.5h3.346a.917.917,0,1,0,0-1.833H18.254l.413-3.667a.917.917,0,1,0-1.833,0l-.413,3.667h-5.5l.413-3.667a.917.917,0,0,0-1.833,0L9.088,8.583H4.917a.917.917,0,1,0,0,1.833H8.9l-.642,5.5H4.917a.917.917,0,1,0,0,1.833H8.079l-.412,3.667a.917.917,0,1,0,1.833,0l.413-3.667h5.5L15,21.417a.917.917,0,1,0,1.833,0l.413-3.667h4.171a.917.917,0,1,0,0-1.833Zm-11.321,0,.642-5.5h5.5l-.642,5.5Z" transform="translate(-4 -4)" fill="#7d7d7d"/>
  </g>
</svg>
